<svg xmlns="http://www.w3.org/2000/svg" xmlns:xlink="http://www.w3.org/1999/xlink" width="500" zoomAndPan="magnify" viewBox="0 0 375 374.999991" height="500" preserveAspectRatio="xMidYMid meet" version="1.0"><defs><g/><clipPath id="1dbb994c51"><path d="M 0.601562 0.359375 L 117 0.359375 L 117 116.519531 L 0.601562 116.519531 Z M 0.601562 0.359375 " clip-rule="nonzero"/></clipPath><clipPath id="00d08bdd68"><rect x="0" width="117" y="0" height="117"/></clipPath><clipPath id="c57e401854"><path d="M 112 3 L 273.960938 3 L 273.960938 115 L 112 115 Z M 112 3 " clip-rule="nonzero"/></clipPath><clipPath id="42d14756a2"><rect x="0" width="162" y="0" height="112"/></clipPath><clipPath id="89ade9fa0d"><path d="M 19.683594 7.773438 L 37.609375 7.773438 L 37.609375 25.703125 L 19.683594 25.703125 Z M 19.683594 7.773438 " clip-rule="nonzero"/></clipPath><clipPath id="7322762d13"><rect x="0" width="274" y="0" height="117"/></clipPath></defs><rect x="-37.5" width="450" fill="#ffffff" y="-37.499999" height="449.999989" fill-opacity="1"/><rect x="-37.5" width="450" fill="#ffffff" y="-37.499999" height="449.999989" fill-opacity="1"/><g transform="matrix(1, 0, 0, 1, 51, 129)"><g clip-path="url(#7322762d13)"><g clip-path="url(#1dbb994c51)"><g><g clip-path="url(#00d08bdd68)"><g fill="#000000" fill-opacity="1"><g transform="translate(4.105031, 88.091057)"><g><path d="M 7.1875 0.59375 C 14.289062 0.59375 17.84375 -3.46875 19.363281 -11.753906 L 27.058594 -55.386719 C 27.480469 -57.839844 29.089844 -59.953125 31.285156 -61.050781 L 31.371094 -61.558594 L 18.347656 -61.558594 L 18.265625 -61.050781 C 20.125 -60.207031 20.71875 -57.839844 20.292969 -55.386719 L 12.261719 -10.316406 C 11.414062 -4.988281 8.964844 -2.199219 5.15625 -2.199219 C 1.351562 -2.199219 -0.929688 -5.835938 -0.339844 -9.976562 L -0.761719 -9.976562 C -1.4375 -5.75 -0.59375 0.59375 7.1875 0.59375 Z M 7.1875 0.59375 "/></g></g></g><g fill="#000000" fill-opacity="1"><g transform="translate(28.879639, 88.091057)"><g><path d="M 20.039062 0.59375 C 34.332031 0.59375 45.15625 -13.023438 45.15625 -27.398438 C 45.15625 -38.136719 38.304688 -44.902344 28.160156 -44.902344 C 13.867188 -44.902344 3.042969 -31.117188 3.042969 -16.828125 C 3.042969 -6.003906 9.808594 0.59375 20.039062 0.59375 Z M 20.210938 -0.421875 C 13.867188 -0.421875 9.554688 -5.664062 9.554688 -14.375 C 9.554688 -26.722656 17.164062 -43.886719 27.90625 -43.886719 C 34.332031 -43.886719 38.558594 -38.390625 38.558594 -29.765625 C 38.558594 -17.335938 31.035156 -0.421875 20.210938 -0.421875 Z M 20.210938 -0.421875 "/></g></g></g><g fill="#000000" fill-opacity="1"><g transform="translate(72.848597, 88.091057)"><g><path d="M 36.953125 -43.546875 C 37.121094 -41.773438 36.953125 -39.660156 36.445312 -36.613281 C 34.332031 -26.550781 25.367188 -12.175781 19.28125 -3.128906 L 12.9375 -35.683594 C 12.175781 -39.488281 13.359375 -41.6875 16.910156 -43.039062 L 16.996094 -43.546875 L 2.960938 -43.546875 L 2.875 -43.039062 C 4.988281 -41.347656 5.835938 -39.828125 6.511719 -36.023438 L 14.542969 3.46875 L 13.445312 4.988281 C 9.46875 10.0625 5.074219 13.699219 0.0859375 13.699219 C -2.199219 13.699219 -4.480469 11.921875 -5.328125 10.484375 L -5.664062 10.484375 L -8.285156 15.558594 C -6.257812 17.335938 -4.398438 17.84375 -2.199219 17.84375 C 3.71875 17.84375 10.316406 11.753906 15.472656 4.3125 L 16.742188 2.621094 C 18.519531 -0.167969 23.339844 -7.1875 25.707031 -10.738281 C 32.300781 -21.394531 40.25 -33.148438 41.773438 -41.433594 C 41.855469 -42.027344 41.941406 -42.957031 41.941406 -43.546875 Z M 36.953125 -43.546875 "/></g></g></g></g></g></g><g clip-path="url(#c57e401854)"><g transform="matrix(1, 0, 0, 1, 112, 3)"><g clip-path="url(#42d14756a2)"><g fill="#000000" fill-opacity="1"><g transform="translate(1.135589, 87.625625)"><g><path d="M 28.234375 -43.140625 C 34.203125 -43.085938 39.28125 -40.9375 43.46875 -36.6875 C 47.65625 -32.445312 49.722656 -27.363281 49.671875 -21.4375 C 49.617188 -15.46875 47.46875 -10.390625 43.21875 -6.203125 C 38.976562 -2.015625 33.898438 0.0507812 27.984375 0 C 22.898438 0 18.347656 -1.644531 14.328125 -4.9375 L 14.328125 0 L 2.59375 0 L 2.515625 -58.46875 L 14.234375 -58.46875 L 14.234375 -38.03125 C 18.253906 -41.4375 22.921875 -43.140625 28.234375 -43.140625 Z M 35.59375 -13.984375 C 37.601562 -15.992188 38.664062 -18.507812 38.78125 -21.53125 C 38.78125 -24.375 37.75 -26.882812 35.6875 -29.0625 C 33.613281 -31.132812 31.097656 -32.171875 28.140625 -32.171875 C 25.242188 -32.171875 22.734375 -31.164062 20.609375 -29.15625 C 18.535156 -27.082031 17.5 -24.566406 17.5 -21.609375 C 17.394531 -18.703125 18.398438 -16.191406 20.515625 -14.078125 C 22.523438 -12.066406 25.039062 -11.003906 28.0625 -10.890625 C 31.019531 -10.890625 33.53125 -11.921875 35.59375 -13.984375 Z M 35.59375 -13.984375 "/></g></g></g><g fill="#000000" fill-opacity="1"><g transform="translate(51.305715, 87.625625)"><g><path d="M 14.234375 -58.21875 L 14.234375 0 L 2.515625 0 L 2.515625 -58.21875 Z M 14.234375 -58.21875 "/></g></g></g><g fill="#000000" fill-opacity="1"><g transform="translate(67.219401, 87.625625)"><g><path d="M 14.15625 -58.390625 L 14.15625 -48.5 L 2.515625 -48.5 L 2.515625 -58.390625 Z M 14.234375 -43.0625 L 14.234375 0 L 2.515625 0 L 2.515625 -43.0625 Z M 14.234375 -43.0625 "/></g></g></g><g fill="#000000" fill-opacity="1"><g transform="translate(83.133087, 87.625625)"><g><path d="M 19.9375 0 C 17.03125 0 14.488281 -0.445312 12.3125 -1.34375 C 10.582031 -1.957031 8.796875 -3.101562 6.953125 -4.78125 C 3.765625 -7.738281 2.3125 -11.476562 2.59375 -16 L 2.59375 -16.921875 L 11.984375 -16.75 L 12.734375 -16.75 L 12.734375 -16.078125 C 12.785156 -14.679688 13.09375 -13.539062 13.65625 -12.65625 C 14.601562 -11.03125 16.695312 -10.21875 19.9375 -10.21875 C 22.613281 -10.21875 24.539062 -10.523438 25.71875 -11.140625 C 26.332031 -11.421875 26.75 -11.785156 26.96875 -12.234375 C 27.082031 -12.398438 27.140625 -12.566406 27.140625 -12.734375 L 27.21875 -13.15625 C 27.21875 -14.320312 26.296875 -15.269531 24.453125 -16 C 23.734375 -16.28125 22.898438 -16.503906 21.953125 -16.671875 C 21.222656 -16.835938 20.410156 -16.976562 19.515625 -17.09375 C 16.160156 -17.425781 13.367188 -18.09375 11.140625 -19.09375 C 8.910156 -19.988281 7.066406 -21.21875 5.609375 -22.78125 C 3.597656 -25.070312 2.59375 -27.695312 2.59375 -30.65625 C 2.59375 -32.5 2.929688 -34.203125 3.609375 -35.765625 C 4.109375 -36.992188 4.773438 -38.082031 5.609375 -39.03125 C 8.628906 -42.5 13.460938 -44.234375 20.109375 -44.234375 C 24.066406 -44.234375 27.414062 -43.445312 30.15625 -41.875 C 32.28125 -40.707031 33.984375 -39.117188 35.265625 -37.109375 C 36.265625 -35.597656 36.960938 -33.835938 37.359375 -31.828125 C 37.472656 -31.160156 37.554688 -30.519531 37.609375 -29.90625 L 37.609375 -28.140625 L 27.46875 -28.140625 L 27.46875 -29.40625 C 27.414062 -29.625 27.390625 -29.847656 27.390625 -30.078125 C 27.222656 -30.691406 27 -31.191406 26.71875 -31.578125 C 25.488281 -33.253906 23.285156 -34.09375 20.109375 -34.09375 C 15.410156 -34.09375 13.0625 -33.113281 13.0625 -31.15625 C 13.0625 -30.15625 13.625 -29.347656 14.75 -28.734375 C 15.914062 -28.003906 17.894531 -27.472656 20.6875 -27.140625 C 27.113281 -26.472656 31.773438 -24.4375 34.671875 -21.03125 C 36.628906 -18.738281 37.609375 -16.113281 37.609375 -13.15625 L 37.609375 -12.5625 L 37.53125 -11.8125 C 37.53125 -11.082031 37.445312 -10.410156 37.28125 -9.796875 C 36.832031 -8.015625 35.992188 -6.425781 34.765625 -5.03125 C 33.367188 -3.351562 31.414062 -2.09375 28.90625 -1.25 C 26.382812 -0.414062 23.394531 0 19.9375 0 Z M 19.9375 0 "/></g></g></g><g fill="#000000" fill-opacity="1"><g transform="translate(122.414845, 87.625625)"><g><path d="M 19.9375 0 C 17.03125 0 14.488281 -0.445312 12.3125 -1.34375 C 10.582031 -1.957031 8.796875 -3.101562 6.953125 -4.78125 C 3.765625 -7.738281 2.3125 -11.476562 2.59375 -16 L 2.59375 -16.921875 L 11.984375 -16.75 L 12.734375 -16.75 L 12.734375 -16.078125 C 12.785156 -14.679688 13.09375 -13.539062 13.65625 -12.65625 C 14.601562 -11.03125 16.695312 -10.21875 19.9375 -10.21875 C 22.613281 -10.21875 24.539062 -10.523438 25.71875 -11.140625 C 26.332031 -11.421875 26.75 -11.785156 26.96875 -12.234375 C 27.082031 -12.398438 27.140625 -12.566406 27.140625 -12.734375 L 27.21875 -13.15625 C 27.21875 -14.320312 26.296875 -15.269531 24.453125 -16 C 23.734375 -16.28125 22.898438 -16.503906 21.953125 -16.671875 C 21.222656 -16.835938 20.410156 -16.976562 19.515625 -17.09375 C 16.160156 -17.425781 13.367188 -18.09375 11.140625 -19.09375 C 8.910156 -19.988281 7.066406 -21.21875 5.609375 -22.78125 C 3.597656 -25.070312 2.59375 -27.695312 2.59375 -30.65625 C 2.59375 -32.5 2.929688 -34.203125 3.609375 -35.765625 C 4.109375 -36.992188 4.773438 -38.082031 5.609375 -39.03125 C 8.628906 -42.5 13.460938 -44.234375 20.109375 -44.234375 C 24.066406 -44.234375 27.414062 -43.445312 30.15625 -41.875 C 32.28125 -40.707031 33.984375 -39.117188 35.265625 -37.109375 C 36.265625 -35.597656 36.960938 -33.835938 37.359375 -31.828125 C 37.472656 -31.160156 37.554688 -30.519531 37.609375 -29.90625 L 37.609375 -28.140625 L 27.46875 -28.140625 L 27.46875 -29.40625 C 27.414062 -29.625 27.390625 -29.847656 27.390625 -30.078125 C 27.222656 -30.691406 27 -31.191406 26.71875 -31.578125 C 25.488281 -33.253906 23.285156 -34.09375 20.109375 -34.09375 C 15.410156 -34.09375 13.0625 -33.113281 13.0625 -31.15625 C 13.0625 -30.15625 13.625 -29.347656 14.75 -28.734375 C 15.914062 -28.003906 17.894531 -27.472656 20.6875 -27.140625 C 27.113281 -26.472656 31.773438 -24.4375 34.671875 -21.03125 C 36.628906 -18.738281 37.609375 -16.113281 37.609375 -13.15625 L 37.609375 -12.5625 L 37.53125 -11.8125 C 37.53125 -11.082031 37.445312 -10.410156 37.28125 -9.796875 C 36.832031 -8.015625 35.992188 -6.425781 34.765625 -5.03125 C 33.367188 -3.351562 31.414062 -2.09375 28.90625 -1.25 C 26.382812 -0.414062 23.394531 0 19.9375 0 Z M 19.9375 0 "/></g></g></g></g></g></g><g clip-path="url(#89ade9fa0d)"><path fill="#000000" d="M 28.695312 7.773438 C 27.816406 15.195312 27.105469 15.910156 19.683594 16.789062 C 19.699219 16.789062 19.714844 16.792969 19.730469 16.792969 C 27.109375 17.667969 27.820312 18.394531 28.695312 25.800781 C 29.574219 18.378906 30.285156 17.667969 37.710938 16.789062 C 30.285156 15.910156 29.574219 15.195312 28.695312 7.773438 Z M 28.695312 7.773438 " fill-opacity="1" fill-rule="nonzero"/></g></g></g></svg>